<svg width="157" height="167" viewBox="0 0 157 167" fill="none" xmlns="http://www.w3.org/2000/svg">
<path d="M115.077 147.018C129.395 138.752 124.323 103.161 103.748 67.5252C83.1736 31.8889 54.8875 9.70139 40.5693 17.968C26.2512 26.2346 31.3231 61.8248 51.8977 97.4611C72.4723 133.097 100.758 155.285 115.077 147.018Z" stroke="white" stroke-width="7"/>
<path d="M153 82.5676C153 99.3128 119.645 112.887 78.5 112.887C37.3548 112.887 4 99.3128 4 82.5676C4 65.8225 37.3548 52.2479 78.5 52.2479C119.645 52.2479 153 65.8225 153 82.5676Z" stroke="white" stroke-width="7"/>
<path d="M116.407 17.9681C130.725 26.2347 125.653 61.825 105.078 97.4613C84.5037 133.098 56.2176 155.285 41.8994 147.018C27.5813 138.752 32.6531 103.162 53.2277 67.5253C73.8023 31.8891 102.089 9.70154 116.407 17.9681Z" stroke="white" stroke-width="7"/>
<path d="M78.4998 93.8293C84.241 93.8293 88.8952 88.9812 88.8952 83.0008C88.8952 77.0204 84.241 72.1723 78.4998 72.1723C72.7586 72.1723 68.1045 77.0204 68.1045 83.0008C68.1045 88.9812 72.7586 93.8293 78.4998 93.8293Z" fill="white"/>
</svg>
