<svg width="880" height="782" viewBox="0 0 880 782" fill="none" xmlns="http://www.w3.org/2000/svg">
<path fill-rule="evenodd" clip-rule="evenodd" d="M655.297 771.529C707.399 741.448 715.98 650.038 686.422 535.064C802.724 503.289 879.113 449.688 879.113 388.919C879.113 329.6 806.324 277.111 694.674 245.085C723.75 130.852 715.01 40.1386 663.146 10.1948C610.357 -20.2832 525.383 19.4087 439.443 104.784C353.503 19.4087 268.53 -20.2833 215.74 10.1948C163.867 40.1438 155.133 130.884 184.228 245.146C72.6977 277.177 0 329.637 0 388.919C0 449.651 76.2968 503.223 192.48 535.006C162.903 650.007 171.479 741.443 223.59 771.529C274.771 801.079 356.206 764.668 439.443 684.614C522.68 764.668 604.115 801.079 655.297 771.529Z" fill="#6028FF"/>
</svg>
