<svg width="264" height="117" viewBox="0 0 264 117" fill="none" xmlns="http://www.w3.org/2000/svg">
<path fill-rule="evenodd" clip-rule="evenodd" d="M101.663 43.5465C105.5 27.9106 104.347 15.494 97.503 11.3954C90.5373 7.22368 79.325 12.6566 67.9851 24.3425C56.6452 12.6566 45.4328 7.2237 38.4672 11.3954C31.6225 15.4948 30.47 27.915 34.3092 43.5548C19.5926 47.9392 10 55.1198 10 63.2342C10 71.547 20.0675 78.8798 35.398 83.2301C31.4954 98.9711 32.6269 111.486 39.503 115.605C46.2565 119.649 57.0019 114.665 67.9851 103.708C78.9683 114.665 89.7137 119.649 96.4672 115.605C103.342 111.487 104.474 98.9752 100.574 83.238C115.92 78.8886 126 71.552 126 63.2342C126 55.1147 116.395 47.9302 101.663 43.5465Z" fill="#6028FF"/>
<path fill-rule="evenodd" clip-rule="evenodd" d="M93.0826 37.7249C96.8532 23.4041 95.7199 12.0319 88.9943 8.27806C82.1488 4.4572 71.1297 9.43316 59.9853 20.1361C48.841 9.43318 37.8219 4.45723 30.9764 8.27808C24.2496 12.0326 23.1171 23.4081 26.89 37.7325C12.4272 41.7481 3 48.3247 3 55.7565C3 63.3701 12.8939 70.0861 27.9601 74.0706C24.1248 88.4875 25.2368 99.9502 31.9943 103.722C38.6313 107.426 49.1915 102.862 59.9853 92.8259C70.7792 102.862 81.3394 107.426 87.9764 103.722C94.7328 99.9508 95.8456 88.4914 92.0125 74.0778C107.094 70.0943 117 63.3747 117 55.7565C117 48.32 107.561 41.7398 93.0826 37.7249Z" fill="white" fill-opacity="0.898"/>
<path fill-rule="evenodd" clip-rule="evenodd" d="M22.9137 14.9623C23.9185 10.7863 25.965 7.31038 29.3606 5.34997C32.7561 3.38955 36.7896 3.35521 40.9086 4.57301C45.0207 5.78881 49.4234 8.30278 53.8536 11.7778C55.5512 13.1093 57.2665 14.5928 58.9856 16.2165C60.7047 14.5928 62.42 13.1093 64.1175 11.7778C68.5477 8.30279 72.9505 5.78882 77.0626 4.57303C81.1815 3.35522 85.215 3.38956 88.6106 5.34997C92.0061 7.31039 94.0526 10.7864 95.0574 14.9623C96.0606 19.1314 96.0848 24.2013 95.2904 29.7755C95.0196 31.6762 94.6515 33.6494 94.1885 35.6821C96.0277 36.2612 97.7803 36.8853 99.4368 37.5508C104.661 39.65 109.04 42.2059 112.149 45.1592C115.263 48.1174 117.25 51.6277 117.25 55.5485C117.25 59.4694 115.263 62.9797 112.149 65.9378C109.04 68.8911 104.661 71.4471 99.4368 73.5462C97.4708 74.3361 95.3692 75.0677 93.1485 75.7348C93.6303 77.8294 94.0118 79.8612 94.2904 81.8164C95.0848 87.3906 95.0606 92.4605 94.0574 96.6295C93.0526 100.806 91.0061 104.282 87.6106 106.242C84.215 108.202 80.1815 108.237 76.0626 107.019C71.9505 105.803 67.5477 103.289 63.1175 99.8141C61.7493 98.7409 60.3695 97.5689 58.9856 96.3045C57.6016 97.569 56.2218 98.7409 54.8536 99.8141C50.4234 103.289 46.0207 105.803 41.9086 107.019C37.7896 108.237 33.7561 108.202 30.3606 106.242C26.965 104.282 24.9185 100.806 23.9137 96.6296C22.9106 92.4605 22.8864 87.3906 23.6807 81.8164C23.9597 79.8587 24.3418 77.8241 24.8245 75.7267C22.6137 75.0617 20.5213 74.3329 18.5632 73.5462C13.3387 71.4471 8.9601 68.8911 5.85113 65.9378C2.73702 62.9797 0.75 59.4694 0.75 55.5485C0.75 51.6277 2.73702 48.1174 5.85113 45.1592C8.9601 42.2059 13.3387 39.65 18.5632 37.5508C20.2116 36.8885 21.9552 36.2673 23.7845 35.6906C23.3206 33.6549 22.952 31.6789 22.6807 29.7755C21.8864 24.2013 21.9106 19.1314 22.9137 14.9623ZM29.1693 76.9133C28.7335 78.8271 28.3885 80.6773 28.1357 82.4513C27.3892 87.6893 27.4633 92.1459 28.2889 95.5768C29.1127 99.0009 30.6253 101.199 32.6106 102.345C34.5958 103.491 37.2554 103.702 40.6327 102.704C44.0168 101.703 47.9133 99.5389 52.0763 96.2734C53.2846 95.3256 54.5074 94.2913 55.7385 93.1751C51.8806 89.2637 48.0347 84.6726 44.3592 79.5347C38.9533 78.9583 33.8479 78.0692 29.1693 76.9133ZM62.2327 93.1751C63.4637 94.2913 64.6866 95.3256 65.8948 96.2734C70.0579 99.5389 73.9544 101.703 77.3385 102.704C80.7158 103.702 83.3753 103.491 85.3606 102.345C87.3458 101.199 88.8584 99.0009 89.6823 95.5768C90.5078 92.1459 90.5819 87.6893 89.8354 82.4513C89.5829 80.6793 89.2385 78.8315 88.8034 76.9201C84.1233 78.0749 79.0165 78.9629 73.6096 79.538C69.9348 84.6746 66.0897 89.2645 62.2327 93.1751ZM67.646 80.0363C64.7987 83.7627 61.8849 87.1234 58.9856 90.059C56.0858 87.1229 53.1715 83.7616 50.3238 80.0344C53.1562 80.2085 56.0537 80.2985 59 80.2985C61.9358 80.2985 64.8231 80.2091 67.646 80.0363ZM76.9833 74.5921C80.763 74.0675 84.3471 73.383 87.6847 72.5611C86.7458 69.2618 85.5628 65.8145 84.1417 62.2749C83.1294 64.2367 82.055 66.2046 80.9197 68.171C79.6448 70.3791 78.3298 72.5219 76.9833 74.5921ZM81.8129 56.8604C80.3731 59.8549 78.7752 62.8854 77.0226 65.921C75.1285 69.2017 73.1491 72.323 71.1163 75.2615C67.2253 75.6125 63.1705 75.7985 59 75.7985C54.8185 75.7985 50.7533 75.6115 46.8529 75.2588C44.8208 72.321 42.8421 69.2006 40.9486 65.9209C39.196 62.8854 37.5981 59.8549 36.1582 56.8604C37.8471 53.1776 39.7793 49.4282 41.9486 45.671C43.975 42.161 46.099 38.8336 48.2817 35.7171C51.7428 35.4429 55.3265 35.2985 59 35.2985C62.6627 35.2985 66.2362 35.442 69.6878 35.7147C71.871 38.8318 73.9956 42.1601 76.0226 45.6709C78.1918 49.4282 80.1241 53.1776 81.8129 56.8604ZM86.7657 56.9061C88.9504 61.8811 90.7114 66.7479 92.0253 71.3733C94.0564 70.7581 95.9725 70.0885 97.7591 69.3706C102.669 67.3981 106.491 65.1057 109.05 62.6752C111.603 60.2497 112.75 57.8409 112.75 55.5485C112.75 53.2562 111.603 50.8474 109.05 48.4218C106.491 45.9914 102.669 43.699 97.7591 41.7264C96.2828 41.1332 94.7182 40.573 93.0733 40.0492C91.5611 45.4103 89.4464 51.0988 86.7657 56.9061ZM88.7487 38.8048C87.6103 42.8446 86.1043 47.1093 84.2418 51.4958C82.9177 48.8145 81.4758 46.1161 79.9197 43.4209C78.5033 40.9676 77.0373 38.5949 75.5336 36.3128C80.2586 36.9097 84.6954 37.7544 88.7487 38.8048ZM89.8552 34.4429C90.2659 32.6128 90.593 30.8417 90.8354 29.1406C91.5819 23.9026 91.5078 19.446 90.6823 16.0151C89.8584 12.591 88.3458 10.3933 86.3606 9.24709C84.3753 8.1009 81.7158 7.88983 78.3385 8.88836C74.9544 9.88891 71.0579 12.053 66.8948 15.3185C65.3425 16.5362 63.7661 17.8967 62.1791 19.3903C65.5564 22.9138 68.9147 26.9508 72.1473 31.4118C78.5087 32.0161 84.478 33.0507 89.8552 34.4429ZM55.792 19.3903C54.2051 17.8967 52.6287 16.5362 51.0763 15.3185C46.9133 12.053 43.0168 9.8889 39.6327 8.88835C36.2554 7.88982 33.5958 8.10089 31.6106 9.24708C29.6253 10.3933 28.1127 12.591 27.2889 16.0151C26.4633 19.446 26.3892 23.9026 27.1357 29.1406C27.3784 30.8439 27.7061 32.6173 28.1176 34.4499C33.4931 33.0565 39.4612 32.0205 45.8217 31.4147C49.055 26.9526 52.414 22.9146 55.792 19.3903ZM51.7666 30.9815C54.1452 27.9072 56.5672 25.0892 58.9856 22.5617C61.4035 25.0888 63.8251 27.9063 66.2034 30.98C63.8418 30.8601 61.4376 30.7985 59 30.7985C56.5521 30.7985 54.1378 30.8607 51.7666 30.9815ZM42.4349 36.3168C37.7113 36.9148 33.2759 37.7604 29.2244 38.8117C30.3625 42.8495 31.8679 47.1118 33.7293 51.4958C35.0535 48.8145 36.4954 46.1161 38.0514 43.421C39.4671 40.969 40.9321 38.5977 42.4349 36.3168ZM31.2054 56.9061C28.5262 51.1018 26.4122 45.4163 24.9002 40.0576C23.265 40.579 21.7093 41.1364 20.2409 41.7264C15.3314 43.699 11.5089 45.9914 8.95038 48.4218C6.39699 50.8474 5.25 53.2562 5.25 55.5485C5.25 57.8409 6.39699 60.2497 8.95038 62.6752C11.5089 65.1057 15.3314 67.3981 20.2409 69.3706C22.0198 70.0854 23.9268 70.7523 25.9481 71.3653C27.2618 66.7423 29.022 61.8782 31.2054 56.9061ZM33.8294 62.2749C32.4093 65.8121 31.227 69.2572 30.2883 72.5545C33.6243 73.377 37.2068 74.0623 40.985 74.5877C39.6394 72.5188 38.3254 70.3775 37.0514 68.1709C35.9162 66.2046 34.8417 64.2367 33.8294 62.2749Z" fill="black"/>
<path d="M59 64C63.4183 64 67 60.4183 67 56C67 51.5817 63.4183 48 59 48C54.5817 48 51 51.5817 51 56C51 60.4183 54.5817 64 59 64Z" fill="black"/>
<path d="M165.524 50L157.88 34.452C162.04 32.944 164.38 29.772 164.38 24.832C164.38 17.708 159.44 14.12 151.172 14.12H138.952V50H144.984V35.44H151.952L158.868 50H165.524ZM144.984 30.24V19.372H150.756C155.852 19.372 158.348 20.776 158.348 24.832C158.348 28.888 155.852 30.24 150.756 30.24H144.984ZM184.74 43.136C183.7 44.748 182.452 45.684 179.384 45.684C175.276 45.684 173.716 42.512 173.716 38.456V38.352H189.264V35.492C189.264 27.796 185.884 23.532 178.76 23.532C171.948 23.532 168.204 27.536 168.204 35.18V38.716C168.204 45.632 172.156 50.468 179.592 50.468C184.168 50.468 187.08 49.22 188.9 46.048L184.74 43.136ZM178.76 28.368C181.932 28.368 183.492 30.292 183.7 34.088H173.768C174.028 30.552 175.536 28.368 178.76 28.368ZM193.336 42.356C193.336 47.556 196.872 50.468 202.592 50.468C205.764 50.468 207.376 49.636 208.624 47.608V50H214.084V32.528C214.084 25.612 210.496 23.532 203.84 23.532C198.692 23.532 195.884 24.78 194.012 27.848L198.016 30.656C199.264 28.628 200.668 28.316 203.476 28.316C207.376 28.316 208.624 29.2 208.624 32.476V34.66H203.008C197.444 34.66 193.336 36.792 193.336 42.356ZM208.624 40.172C208.624 44.696 206.596 45.736 203.216 45.736C200.564 45.736 198.796 44.748 198.796 42.356C198.796 40.068 200.148 38.924 203.424 38.924H208.624V40.172ZM235.419 43.136C234.431 44.904 232.663 45.684 230.479 45.684C225.903 45.684 224.447 42.512 224.447 38.456V35.44C224.447 30.968 226.423 28.368 230.479 28.368C232.715 28.368 234.379 29.304 235.367 30.708L239.631 27.744C237.811 24.988 234.535 23.532 230.583 23.532C223.147 23.532 218.935 27.692 218.935 35.18V38.716C218.935 45.788 223.095 50.468 230.375 50.468C234.847 50.468 237.915 49.116 239.631 46.048L235.419 43.136ZM241.103 28.784H244.431V41.732C244.431 47.868 246.667 50 252.907 50H255.455V45.008H253.323C250.411 45.008 249.943 43.708 249.943 40.692V28.784H255.455V24H249.943V18.28H244.431V24H241.103V28.784ZM151.068 99C159.128 99 164.536 94.684 164.536 83.192V78.928C164.536 67.436 159.128 63.12 151.068 63.12H138.952V99H151.068ZM151.068 93.8H144.984V68.372H151.068C156.216 68.372 158.504 71.544 158.504 78.928V83.192C158.504 90.576 156.216 93.8 151.068 93.8ZM185.451 92.136C184.411 93.748 183.163 94.684 180.095 94.684C175.987 94.684 174.427 91.512 174.427 87.456V87.352H189.975V84.492C189.975 76.796 186.595 72.532 179.471 72.532C172.659 72.532 168.915 76.536 168.915 84.18V87.716C168.915 94.632 172.867 99.468 180.303 99.468C184.879 99.468 187.791 98.22 189.611 95.048L185.451 92.136ZM179.471 77.368C182.643 77.368 184.203 79.292 184.411 83.088H174.479C174.739 79.552 176.247 77.368 179.471 77.368ZM221.347 74.248C220.151 66.448 215.419 62.652 208.295 62.652C200.287 62.652 194.879 67.488 194.879 78.772V83.348C194.879 94.632 200.287 99.468 208.295 99.468C215.419 99.468 220.099 95.932 221.295 87.872H215.523C214.587 92.24 212.403 94.216 208.295 94.216C203.511 94.216 200.911 90.992 200.911 83.348V78.772C200.911 71.024 203.511 67.904 208.295 67.904C212.247 67.904 214.587 69.88 215.523 74.248H221.347ZM224.312 91.356C224.312 96.556 227.848 99.468 233.568 99.468C236.74 99.468 238.352 98.636 239.6 96.608V99H245.06V81.528C245.06 74.612 241.472 72.532 234.816 72.532C229.668 72.532 226.86 73.78 224.988 76.848L228.992 79.656C230.24 77.628 231.644 77.316 234.452 77.316C238.352 77.316 239.6 78.2 239.6 81.476V83.66H233.984C228.42 83.66 224.312 85.792 224.312 91.356ZM239.6 89.172C239.6 93.696 237.572 94.736 234.192 94.736C231.54 94.736 229.772 93.748 229.772 91.356C229.772 89.068 231.124 87.924 234.4 87.924H239.6V89.172ZM251.003 90.836C251.003 96.816 253.759 99 260.519 99V94.112C257.087 94.112 256.567 92.344 256.567 89.536V63.12H251.003V90.836Z" fill="#212121"/>
</svg>
